<svg width="360" height="264" viewBox="0 0 360 264" fill="none" xmlns="http://www.w3.org/2000/svg">
<g clip-path="url(#clip0_61_278)">
<rect width="360" height="264" fill="url(#paint0_linear_61_278)"/>
<path d="M10.4999 11.1686C4.5019 17.3819 2.25514 17.9267 -6.32544 15.2809C0.27849 21.3383 0.926675 23.5423 -1.50012 31.8026C4.49786 25.5892 6.74462 25.0445 15.3252 27.6903C8.72127 21.6328 8.07309 19.4288 10.4999 11.1686Z" fill="#C8BBFF"/>
<path d="M346.5 203.102C345.096 207.977 343.959 208.903 338 210.051C343.964 211.199 345.1 212.125 346.5 217C347.904 212.125 349.041 211.199 355 210.051C349.036 208.903 347.9 207.977 346.5 203.102Z" fill="white"/>
<path d="M339 12.8442C340.382 17.6816 339.98 18.9811 336.005 22.5852C341.14 20.9674 342.475 21.2714 346 24.8807C344.617 20.0432 345.02 18.7437 348.995 15.1396C343.86 16.7574 342.525 16.4535 339 12.8442Z" fill="#F8F98F"/>
</g>
<defs>
<linearGradient id="paint0_linear_61_278" x1="49.8615" y1="209.478" x2="689.863" y2="120.131" gradientUnits="userSpaceOnUse">
<stop offset="0.0473748" stop-color="#00667F"/>
<stop offset="1" stop-color="#37C8AB"/>
</linearGradient>
<clipPath id="clip0_61_278">
<rect width="360" height="264" fill="white"/>
</clipPath>
</defs>
</svg>
