<svg width="360" height="345" viewBox="0 0 360 345" fill="none" xmlns="http://www.w3.org/2000/svg">
<path d="M202.183 145.362C254 53.0003 310.5 37.0002 377.624 43.0482C444.748 49.0962 411.213 80.106 397.617 88.5905C380.623 99.1962 401.5 51.4101 330.5 70.0003C259.5 88.5905 94.7182 334.602 -11.2466 345C-14.079 321.085 -18.0444 274.316 -11.2466 278.558C-2.74944 283.861 150.443 237.586 202.183 145.362Z" fill="#DFF6F2"/>
<path d="M40.839 31.4289C38.0186 24.0889 36.3152 22.8395 28.0953 22.0446C35.8807 19.2728 37.2288 17.6465 38.1726 9.84152C40.993 17.1815 42.6963 18.431 50.9163 19.2258C43.1309 21.9976 41.7828 23.624 40.839 31.4289Z" fill="#F8F98F"/>
<path d="M319.316 222.137C320.201 216.055 319.518 214.552 314.22 210.866C320.586 211.955 322.127 211.362 325.756 206.404C324.87 212.485 325.553 213.988 330.852 217.674C324.485 216.585 322.945 217.178 319.316 222.137Z" fill="#E9D5FF"/>
<path d="M293 0H67V309.083H293V0Z" fill="#298F96"/>
<path d="M283.358 8.32935H76.6111V300.54H283.358V8.32935Z" fill="#F3FAFF"/>
<path d="M137.146 0V10.5265C137.146 16.3543 141.845 21.0531 147.673 21.0531H204.181C209.978 21.0531 214.707 16.3543 214.707 10.5265V0H137.146Z" fill="#E9D5FF"/>
<path d="M126.193 272.011H100.624V274.605H126.193V272.011Z" fill="#6AA2B1"/>
<path d="M157.681 272.011H132.112V274.605H157.681V272.011Z" fill="#6AA2B1"/>
<path d="M136.109 277.748H100.624V280.342H136.109V277.748Z" fill="#6AA2B1"/>
<path d="M267.675 105.661H94.0332V109.323H267.675V105.661Z" fill="#6AA2B1"/>
<path d="M254.067 121.955H94.0332V125.616H254.067V121.955Z" fill="#6AA2B1"/>
<path d="M204.516 113.809H157.193V117.47H204.516V113.809Z" fill="#6AA2B1"/>
<path d="M267.675 113.809H212.724V117.47H267.675V113.809Z" fill="#6AA2B1"/>
<path d="M150.144 113.809H94.0332V117.47H150.144V113.809Z" fill="#6AA2B1"/>
<path d="M204.516 96.417H157.193V100.078H204.516V96.417Z" fill="#6AA2B1"/>
<path d="M267.675 96.417H212.724V100.078H267.675V96.417Z" fill="#6AA2B1"/>
<path d="M150.144 96.417H94.0332V100.078H150.144V96.417Z" fill="#6AA2B1"/>
<path d="M267.675 154.451H94.0332V158.112H267.675V154.451Z" fill="#6AA2B1"/>
<path d="M228.01 170.744H94.0332V174.405H228.01V170.744Z" fill="#6AA2B1"/>
<path d="M204.516 145.206H157.193V148.867H204.516V145.206Z" fill="#6AA2B1"/>
<path d="M267.675 145.206H212.724V148.867H267.675V145.206Z" fill="#6AA2B1"/>
<path d="M150.144 145.206H94.0332V148.867H150.144V145.206Z" fill="#6AA2B1"/>
<path d="M257.973 45.2793H216.294V48.9407H257.973V45.2793Z" fill="#6AA2B1"/>
<path d="M195.637 52.938H160.701V56.5994H195.637V52.938Z" fill="#6AA2B1"/>
<path d="M248.88 52.938H201.465V56.5994H248.88V52.938Z" fill="#6AA2B1"/>
<path d="M203.326 61.7866H160.701V65.448H203.326V61.7866Z" fill="#6AA2B1"/>
<path d="M233.502 61.7866H210.252V65.448H233.502V61.7866Z" fill="#6AA2B1"/>
<path d="M210.1 45.2793H160.701V48.9407H210.1V45.2793Z" fill="#6AA2B1"/>
<path d="M169.238 204.52H130V206.869H169.238V204.52Z" fill="#6AA2B1"/>
<path d="M166.156 215.077H130V217.426H166.156V215.077Z" fill="#6AA2B1"/>
<path d="M169.268 209.798H158.559V212.148H169.268V209.798Z" fill="#6AA2B1"/>
<path d="M155.599 209.798H130V212.148H155.599V209.798Z" fill="#6AA2B1"/>
<path d="M268.238 204.52H229V206.869H268.238V204.52Z" fill="#6AA2B1"/>
<path d="M265.156 215.077H229V217.426H265.156V215.077Z" fill="#6AA2B1"/>
<path d="M268.268 209.798H257.559V212.148H268.268V209.798Z" fill="#6AA2B1"/>
<path d="M254.599 209.798H229V212.148H254.599V209.798Z" fill="#6AA2B1"/>
<path d="M238.169 282.361C231.455 282.361 225.615 277.585 224.277 271.035C224.168 270.516 224.496 269.998 225.041 269.889C225.56 269.779 226.079 270.107 226.188 270.653C227.334 276.33 232.383 280.423 238.169 280.423C243.9 280.423 248.95 276.357 250.15 270.762C250.26 270.243 250.778 269.916 251.297 270.025C251.815 270.134 252.143 270.653 252.034 271.171C250.642 277.667 244.828 282.361 238.169 282.361Z" fill="#E9D5FF"/>
<path d="M225.205 266.613C225.151 266.613 225.069 266.613 225.014 266.586C224.496 266.476 224.141 265.985 224.25 265.439C225.533 258.78 231.401 253.977 238.169 253.977C244.692 253.977 250.341 258.398 251.924 264.702C252.061 265.221 251.733 265.74 251.215 265.876C250.696 266.012 250.178 265.685 250.041 265.166C248.677 259.708 243.791 255.914 238.169 255.914C232.329 255.914 227.252 260.09 226.16 265.821C226.051 266.313 225.669 266.613 225.205 266.613Z" fill="#E9D5FF"/>
<path d="M238.169 288.338C227.061 288.338 218 279.304 218 268.169C218 257.061 227.034 248 238.169 248C249.277 248 258.338 257.034 258.338 268.169C258.338 279.304 249.304 288.338 238.169 288.338ZM238.169 250.784C228.562 250.784 220.757 258.589 220.757 268.196C220.757 277.803 228.562 285.609 238.169 285.609C247.776 285.609 255.581 277.803 255.581 268.196C255.581 258.589 247.776 250.784 238.169 250.784Z" fill="#E9D5FF"/>
<path d="M242.181 265.658H234.184V266.941H242.181V265.658Z" fill="#E9D5FF"/>
<path d="M242.181 270.898H234.184V272.181H242.181V270.898Z" fill="#E9D5FF"/>
<path d="M244.064 268.169H232.301V269.452H244.064V268.169Z" fill="#E9D5FF"/>
<path d="M147.947 48.3243C147.947 55.7996 144.957 62.6038 140.075 67.5161C135.102 72.5506 128.206 75.6933 120.578 75.6933C112.951 75.6933 106.055 72.5811 101.081 67.5161C96.1996 62.5732 93.2095 55.7996 93.2095 48.3243C93.2095 33.221 105.475 20.9553 120.578 20.9553C135.682 20.9553 147.947 33.221 147.947 48.3243Z" fill="#DFF6F2"/>
<path d="M120.639 27.2709C120.639 27.2709 110.357 26.4776 104.926 37.4618C100.075 47.2866 98.2134 47.9578 100.319 51.07C102.394 54.1822 122.47 59.8269 137.299 53.4194C137.299 53.4194 142.669 51.07 140.625 47.012C138.519 42.9234 132.997 26.2335 120.639 27.2709Z" fill="#2B478B"/>
<path d="M131.642 45.7373C133.086 39.6203 129.299 33.4905 123.181 32.0461C117.064 30.6017 110.935 34.3896 109.49 40.5067C108.046 46.6237 111.834 52.7534 117.951 54.1978C124.068 55.6422 130.198 51.8543 131.642 45.7373Z" fill="#FFC9A4"/>
<path d="M140.075 67.5468C135.102 72.5812 128.206 75.7239 120.578 75.7239C112.95 75.7239 106.055 72.6117 101.081 67.5468C102.668 60.5596 107.885 54.9455 114.689 52.8402C116.551 52.2604 118.534 51.9553 120.578 51.9553C122.623 51.9553 124.606 52.2604 126.467 52.8402C133.241 54.9455 138.489 60.5291 140.075 67.5468Z" fill="#FFC9A4"/>
<path d="M121.494 31.1463C121.494 31.1463 118.015 40.2693 109.167 39.9337C109.198 39.9337 107.977 29.4377 121.494 31.1463Z" fill="#2B478B"/>
<path d="M119.602 31.1463C119.602 31.1463 123.08 40.2693 131.929 39.9337C131.929 39.9337 133.119 29.4377 119.602 31.1463Z" fill="#2B478B"/>
<rect x="92.5" y="199.5" width="25" height="25" rx="6.63416" stroke="#BBBBBB"/>
<path d="M109.333 208.862L102.759 215.437L99.77 212.449" stroke="#1B5360" stroke-width="1.18903" stroke-linecap="round" stroke-linejoin="round"/>
<rect x="191.5" y="199.5" width="25" height="25" rx="6.63416" stroke="#BBBBBB"/>
<path d="M208.333 208.862L201.759 215.437L198.77 212.449" stroke="#1B5360" stroke-width="1.18903" stroke-linecap="round" stroke-linejoin="round"/>
</svg>
